<?xml version="1.0" encoding="UTF-8"?>
<svg width="81px" height="110px" viewBox="0 0 81 110" version="1.1" xmlns="http://www.w3.org/2000/svg" xmlns:xlink="http://www.w3.org/1999/xlink">
    <title>围术期辅助模型</title>
    <defs>
        <filter x="-32.5%" y="-30.0%" width="165.0%" height="160.0%" filterUnits="objectBoundingBox" id="filter-1">
            <feGaussianBlur stdDeviation="8" in="SourceGraphic"></feGaussianBlur>
        </filter>
        <linearGradient x1="50%" y1="0%" x2="50%" y2="132.051189%" id="linearGradient-2">
            <stop stop-color="#0D80E8" offset="0%"></stop>
            <stop stop-color="#D6EBFF" offset="100%"></stop>
        </linearGradient>
        <linearGradient x1="50%" y1="-3.85809647%" x2="50%" y2="86.1418521%" id="linearGradient-3">
            <stop stop-color="#489BE5" offset="0%"></stop>
            <stop stop-color="#0D80E8" offset="100%"></stop>
        </linearGradient>
    </defs>
    <g id="页面-1" stroke="none" stroke-width="1" fill="none" fill-rule="evenodd">
        <g id="2" transform="translate(-140.000000, -454.000000)">
            <g id="编组-11" transform="translate(20.000000, 76.000000)">
                <g id="编组-17" transform="translate(120.000000, 378.001021)">
                    <path d="M75.0189278,39.8631603 C76.2313677,40.9696033 76.943843,42.5218219 76.943843,44.1470037 L76.943843,78.2608297 C76.943843,80.373766 75.7673348,82.3187868 73.8639787,83.3752549 L43.0653358,100.420674 C41.3457449,101.374194 39.2586235,101.467147 37.4692223,100.696535 C37.2854571,100.617575 37.1047717,100.528619 36.9271662,100.430669 L6.1233902,83.3772539 C4.22003406,82.3227848 3.04660577,80.373766 3.04660577,78.2658272 L3.04660577,44.1679931 C3.04660577,42.0600543 4.22003406,40.1110355 6.1233902,39.0565664 L36.9271662,22.0031516 C37.8798709,21.4764168 38.9424241,21.2125496 40.0049773,21.2125496 C41.0675305,21.2125496 42.1300836,21.4764168 43.0817617,22.0031516 L73.8855377,39.0565664 C74.2992662,39.2854512 74.6780895,39.5573143 75.0189278,39.8631603" id="Fill-15备份" fill="#0659A4" fill-rule="nonzero" opacity="0.400000006" filter="url(#filter-1)"></path>
                    <path d="M3.33035167,77.29985 C1.2701765,76.1572224 0,74.0483387 0,71.7652476 L0,62.3660355 L3.10481797,62.3660355 L3.33035167,62.3660355 L36.721,62.3660355 L37.0030074,62.3660355 L37.2610667,62.3660355 L43.3186862,62.3660355 L76.6566522,62.3660355 L78.3773752,62.3660355 L78.5781414,62.3660355 L79.3838089,62.3660355 L79.7529071,62.3660355 L79.8393166,62.3660355 L79.9904488,62.3660355 L79.9904488,71.7613522 C79.9904488,72.1062505 79.9610697,72.4474969 79.9046556,72.7823525 L79.8390944,73.1154092 C79.7624171,73.4546268 79.6569858,73.7865406 79.5246757,74.1070424 L79.3838089,74.424129 C79.2113405,74.7850954 79.0033116,75.1301343 78.763705,75.4542597 L78.5780303,75.6942201 C78.1239394,76.2509265 77.5703034,76.7397014 76.934245,77.1337244 L76.6566522,77.2972531 L43.3186862,95.7502559 C42.5242192,96.1908901 41.6576112,96.4615477 40.77446,96.5623367 C39.5881576,96.6978879 38.3717001,96.5268008 37.2611778,96.0491136 C37.0622613,95.9625509 36.8666785,95.8673319 36.6744296,95.7602106 L3.33035167,77.29985 Z" id="路径" fill="url(#linearGradient-2)"></path>
                    <path d="M77.916339,20.5156717 C79.2289076,21.732759 80.0002223,23.4401994 80.0002223,25.2278995 L80.0002223,62.753108 C80.0002223,65.077338 78.7265528,67.2168609 76.6660091,68.3789758 L43.3238771,87.1289365 C41.4622747,88.1778084 39.2027896,88.280057 37.2656117,87.4323837 C37.0666703,87.3455274 36.8710632,87.2476767 36.6787902,87.1399309 L3.33110124,68.3811747 C1.27055748,67.2212586 0.000222253107,65.077338 0.000222253107,62.7586053 L0.000222253107,25.2509878 C0.000222253107,22.9322552 1.27055748,20.7883345 3.33110124,19.6284184 L36.6787902,0.869662184 C37.7101735,0.290253877 38.860477,0 40.0107806,0 C41.1610841,0 42.3113877,0.290253877 43.3416596,0.869662184 L76.6893486,19.6284184 C77.1372445,19.8801917 77.5473527,20.1792411 77.916339,20.5156717" id="Fill-15" fill="url(#linearGradient-3)"></path>
                    <g id="app-store备份-3" transform="translate(31.995224, 15.137514)" fill-rule="nonzero">
                        <rect id="矩形" fill="#000000" opacity="0" x="0" y="0" width="16" height="16"></rect>
                        <path d="M7.25,2.25 L2.5,2.25 C2.3625,2.25 2.25,2.3625 2.25,2.5 L2.25,7.25 C2.25,7.3875 2.3625,7.5 2.5,7.5 L7.25,7.5 C7.3875,7.5 7.5,7.3875 7.5,7.25 L7.5,2.5 C7.5,2.3625 7.3875,2.25 7.25,2.25 Z M6.4375,6.4375 L3.3125,6.4375 L3.3125,3.3125 L6.4375,3.3125 L6.4375,6.4375 Z M13.5,2.25 L8.75,2.25 C8.6125,2.25 8.5,2.3625 8.5,2.5 L8.5,7.25 C8.5,7.3875 8.6125,7.5 8.75,7.5 L13.5,7.5 C13.6375,7.5 13.75,7.3875 13.75,7.25 L13.75,2.5 C13.75,2.3625 13.6375,2.25 13.5,2.25 Z M12.6875,6.4375 L9.5625,6.4375 L9.5625,3.3125 L12.6875,3.3125 L12.6875,6.4375 Z M7.25,8.5 L2.5,8.5 C2.3625,8.5 2.25,8.6125 2.25,8.75 L2.25,13.5 C2.25,13.6375 2.3625,13.75 2.5,13.75 L7.25,13.75 C7.3875,13.75 7.5,13.6375 7.5,13.5 L7.5,8.75 C7.5,8.6125 7.3875,8.5 7.25,8.5 Z M6.4375,12.6875 L3.3125,12.6875 L3.3125,9.5625 L6.4375,9.5625 L6.4375,12.6875 Z M13.5,8.5 L8.75,8.5 C8.6125,8.5 8.5,8.6125 8.5,8.75 L8.5,13.5 C8.5,13.6375 8.6125,13.75 8.75,13.75 L13.5,13.75 C13.6375,13.75 13.75,13.6375 13.75,13.5 L13.75,8.75 C13.75,8.6125 13.6375,8.5 13.5,8.5 Z M12.6875,12.6875 L9.5625,12.6875 L9.5625,9.5625 L12.6875,9.5625 L12.6875,12.6875 Z" id="形状" fill="#FFFFFF"></path>
                    </g>
                </g>
            </g>
        </g>
    </g>
</svg>