<?xml version="1.0" encoding="UTF-8"?>
<svg width="81px" height="101px" viewBox="0 0 81 101" version="1.1" xmlns="http://www.w3.org/2000/svg" xmlns:xlink="http://www.w3.org/1999/xlink">
    <title>编组 3备份</title>
    <defs>
        <linearGradient x1="50%" y1="-3.85809647%" x2="50%" y2="109.73898%" id="linearGradient-1">
            <stop stop-color="#0D80E8" offset="0%"></stop>
            <stop stop-color="#70BBFE" offset="100%"></stop>
        </linearGradient>
        <linearGradient x1="-32.8749512%" y1="37.0796502%" x2="87.6929321%" y2="60.8910009%" id="linearGradient-2">
            <stop stop-color="#D6EBFF" offset="0%"></stop>
            <stop stop-color="#0D80E8" offset="100%"></stop>
        </linearGradient>
        <linearGradient x1="111.912353%" y1="88.145253%" x2="-7.80902167%" y2="13.3538149%" id="linearGradient-3">
            <stop stop-color="#D6EBFF" offset="0%"></stop>
            <stop stop-color="#0D80E8" offset="100%"></stop>
        </linearGradient>
    </defs>
    <g id="页面-1" stroke="none" stroke-width="1" fill="none" fill-rule="evenodd">
        <g id="2个模型" transform="translate(-240.000000, -646.000000)">
            <g id="编组-3" transform="translate(240.020253, 646.097505)">
                <g id="编组-8备份">
                    <path d="M80,9.38817738 L80,79.054844 L79.9884839,79.0549833 C79.4748848,84.0149772 61.769556,88 40.0015518,88 C18.2308292,88 0.525125809,84.0149772 0.0115163107,79.0549833 L0,79.054844 L0,9.38817738 L80,9.38817738 Z" id="形状结合" fill="url(#linearGradient-1)"></path>
                    <path d="M0.5,34.1215367 C0.5,38.8178698 18.1847524,42.625 40,42.625 C61.8152476,42.625 79.5,38.8178698 79.5,34.1215367" id="路径" stroke="#979797" opacity="0.0624197839"></path>
                    <path d="M0.5,58.4132034 C0.5,63.1095365 18.1847524,66.9166667 40,66.9166667 C61.8152476,66.9166667 79.5,63.1095365 79.5,58.4132034" id="路径备份" stroke="#093021" opacity="0.0624197839"></path>
                    <path d="M40.0015518,0 C62.0928794,0 79.9999483,4.10446924 79.9999483,9.16666667 C79.9999483,14.2290511 62.0928794,18.3333333 40.0015518,18.3333333 C17.9074654,18.3333333 5.17256321e-05,14.2290511 5.17256321e-05,9.16666667 C5.17256321e-05,4.10446924 17.9074654,0 40.0015518,0" id="Fill-66备份-2" fill="url(#linearGradient-2)"></path>
                </g>
                <g id="app-store-fill" transform="translate(30.000000, 10.000000)">
                    <rect id="矩形" fill="#FFFFFF" fill-rule="nonzero" x="0" y="0" width="20" height="20" rx="4"></rect>
                    <path d="M15.078125,5.703125 L4.921875,5.703125 C4.70581055,5.703125 4.53125,5.87768555 4.53125,6.09375 L4.53125,13.90625 C4.53125,14.1223145 4.70581055,14.296875 4.921875,14.296875 L15.078125,14.296875 C15.2941895,14.296875 15.46875,14.1223145 15.46875,13.90625 L15.46875,6.09375 C15.46875,5.87768555 15.2941895,5.703125 15.078125,5.703125 Z M7.87597656,7.4609375 C8.30688477,7.4609375 8.65722656,7.8112793 8.65722656,8.2421875 C8.65722656,8.6730957 8.30688477,9.0234375 7.87597656,9.0234375 C7.44506836,9.0234375 7.09472656,8.6730957 7.09472656,8.2421875 C7.09472656,7.8112793 7.44506836,7.4609375 7.87597656,7.4609375 Z M14.1491699,12.7966309 C14.1320801,12.8112793 14.1088867,12.8198242 14.0856934,12.8198242 L5.91308594,12.8198242 C5.859375,12.8198242 5.81542969,12.7758789 5.81542969,12.722168 C5.81542969,12.6989746 5.82397461,12.677002 5.83862305,12.6586914 L7.91748047,10.1928711 C7.95166016,10.1513672 8.01391602,10.1464844 8.05541992,10.1806641 C8.05908203,10.1843262 8.06396484,10.1879883 8.06762695,10.1928711 L9.28100586,11.6333008 L11.2109375,9.34448242 C11.2451172,9.30297852 11.307373,9.2980957 11.348877,9.33227539 C11.3525391,9.3359375 11.3574219,9.33959961 11.361084,9.34448242 L14.1638184,12.6599121 C14.1955566,12.7001953 14.1906738,12.7624512 14.1491699,12.7966309 Z" id="形状" fill="url(#linearGradient-3)"></path>
                </g>
            </g>
        </g>
    </g>
</svg>