<?xml version="1.0" encoding="UTF-8"?>
<svg width="80px" height="100px" viewBox="0 0 80 100" version="1.1" xmlns="http://www.w3.org/2000/svg" xmlns:xlink="http://www.w3.org/1999/xlink">
    <title>爱尔眼科模型</title>
    <g id="页面-1" stroke="none" stroke-width="1" fill="none" fill-rule="evenodd">
        <g id="2个模型" transform="translate(-40.000000, -343.000000)">
            <g id="爱尔眼科模型" transform="translate(40.000000, 343.000000)">
                <path d="M80,63.7587575 L80,73.1540561 C80,73.4989544 79.9706174,73.8402008 79.9141966,74.1750564 L79.8486276,74.5081131 C79.772062,74.8467956 79.6668297,75.1781974 79.5347973,75.4982296 L79.3932877,75.8168329 C79.2207987,76.1777993 79.012745,76.5228382 78.7731097,76.8469636 L78.5874129,77.086924 C78.1332678,77.6436304 77.5795657,78.1324053 76.9434313,78.5264283 L76.6658053,78.689957 L43.3238587,97.1431762 C41.4622666,98.1754363 39.2027941,98.2749834 37.265627,97.4418175 C37.1330001,97.384109 37.0018551,97.3225533 36.872192,97.2561886 L36.678,97.1517575 L3.33074933,78.6925539 C1.27032817,77.5499263 0,75.4410426 0,73.1579515 L0,63.7587575 L3.1051887,63.7587575 L3.33074933,63.7587575 L36.725,63.7587575 L37.0074258,63.7587575 L37.2655158,63.7587575 L43.3238587,63.7587575 L76.6658053,63.7587575 L78.3867338,63.7587575 L78.587524,63.7587575 L79.2564637,63.7587575 L79.3929543,63.7587575 L79.7624247,63.7587575 L79.8488498,63.7587575 L80,63.7587575 Z" id="路径" fill="#E7E9ED"></path>
                <path d="M77.9165613,20.5156717 C79.2291299,21.732759 80.0004446,23.4401994 80.0004446,25.2278995 L80.0004446,62.753108 C80.0004446,65.077338 78.7267751,67.2168609 76.6662314,68.3789758 L43.3240994,87.1289365 C41.462497,88.1778084 39.2030119,88.280057 37.265834,87.4323837 C37.0668926,87.3455274 36.8712855,87.2476767 36.6790125,87.1399309 L3.33132354,68.3811747 C1.27077979,67.2212586 0.000444559289,65.077338 0.000444559289,62.7586053 L0.000444559289,25.2509878 C0.000444559289,22.9322552 1.27077979,20.7883345 3.33132354,19.6284184 L36.6790125,0.869662184 C37.7103958,0.290253877 38.8606993,0 40.0110029,0 C41.1613065,0 42.31161,0.290253877 43.3418819,0.869662184 L76.6895709,19.6284184 C77.1374668,19.8801917 77.5475751,20.1792411 77.9165613,20.5156717" id="Fill-15" fill="#F5F6F7" fill-rule="nonzero"></path>
                <g id="app-store-fill" transform="translate(30.000222, 16.000000)" fill-rule="nonzero">
                    <rect id="矩形" fill="#9FAAB2" x="0" y="0" width="20" height="20" rx="4"></rect>
                    <rect id="矩形" fill="#000000" opacity="0" x="3.75" y="3.75" width="12.5" height="12.5"></rect>
                    <path d="M8.4375,14.8828125 L14.4921875,14.8828125 C14.708252,14.8828125 14.8828125,14.708252 14.8828125,14.4921875 L14.8828125,7.90039062 L8.4375,7.90039062 L8.4375,14.8828125 Z M14.4921875,5.1171875 L8.4375,5.1171875 L8.4375,7.11914062 L14.8828125,7.11914062 L14.8828125,5.5078125 C14.8828125,5.29174805 14.708252,5.1171875 14.4921875,5.1171875 Z M5.1171875,5.5078125 L5.1171875,14.4921875 C5.1171875,14.708252 5.29174805,14.8828125 5.5078125,14.8828125 L7.65625,14.8828125 L7.65625,5.1171875 L5.5078125,5.1171875 C5.29174805,5.1171875 5.1171875,5.29174805 5.1171875,5.5078125 Z" id="形状" fill="#FFFFFF"></path>
                </g>
            </g>
        </g>
    </g>
</svg>