<?xml version="1.0" encoding="UTF-8"?>
<svg width="81px" height="100px" viewBox="0 0 81 100" version="1.1" xmlns="http://www.w3.org/2000/svg" xmlns:xlink="http://www.w3.org/1999/xlink">
    <title>编组 3备份 2</title>
    <g id="页面-1" stroke="none" stroke-width="1" fill="none" fill-rule="evenodd">
        <g id="3个模型" transform="translate(-40.000000, -481.000000)">
            <g id="编组-3备份-2" transform="translate(40.020253, 481.001021)">
                <g id="编组-8备份">
                    <path d="M80,9.38817738 L80,79.054844 L79.9884839,79.0549833 C79.4748848,84.0149772 61.769556,88 40.0015518,88 C18.2308292,88 0.525125809,84.0149772 0.0115163107,79.0549833 L0,79.054844 L0,9.38817738 L80,9.38817738 Z" id="形状结合" fill="#E7E9ED"></path>
                    <path d="M0.5,34.1215367 C0.5,38.8178698 18.1847524,42.625 40,42.625 C61.8152476,42.625 79.5,38.8178698 79.5,34.1215367" id="路径" stroke="#979797" opacity="0.0624197839"></path>
                    <path d="M0.5,58.4132034 C0.5,63.1095365 18.1847524,66.9166667 40,66.9166667 C61.8152476,66.9166667 79.5,63.1095365 79.5,58.4132034" id="路径备份" stroke="#979797" opacity="0.0624197839"></path>
                    <path d="M40.0015518,0 C62.0928794,0 79.9999483,4.10446924 79.9999483,9.16666667 C79.9999483,14.2290511 62.0928794,18.3333333 40.0015518,18.3333333 C17.9074654,18.3333333 5.17256321e-05,14.2290511 5.17256321e-05,9.16666667 C5.17256321e-05,4.10446924 17.9074654,0 40.0015518,0" id="Fill-66备份-2" fill="#F5F6F7" fill-rule="nonzero"></path>
                </g>
                <g id="app-store-fill" transform="translate(30.000000, 10.000000)" fill-rule="nonzero">
                    <rect id="矩形" fill="#9FAAB2" x="0" y="0" width="20" height="20" rx="4"></rect>
                    <rect id="矩形" fill="#000000" opacity="0" x="3.75" y="3.75" width="12.5" height="12.5"></rect>
                    <path d="M14.4921875,5.1171875 L5.5078125,5.1171875 C5.29174805,5.1171875 5.1171875,5.29174805 5.1171875,5.5078125 L5.1171875,14.4921875 C5.1171875,14.708252 5.29174805,14.8828125 5.5078125,14.8828125 L14.4921875,14.8828125 C14.708252,14.8828125 14.8828125,14.708252 14.8828125,14.4921875 L14.8828125,5.5078125 C14.8828125,5.29174805 14.708252,5.1171875 14.4921875,5.1171875 Z M8.68164062,12.0874023 L8.68164062,13.0273438 C8.68164062,13.0810547 8.63769531,13.125 8.58398438,13.125 L7.99804688,13.125 C7.94433594,13.125 7.90039062,13.0810547 7.90039062,13.0273438 L7.90039062,12.0874023 C7.39135742,11.9213867 7.02148438,11.4428711 7.02148438,10.8789062 C7.02148438,10.3149414 7.39135742,9.83520508 7.90039062,9.67041016 L7.90039062,6.97265625 C7.90039062,6.91894531 7.94433594,6.875 7.99804688,6.875 L8.58398438,6.875 C8.63769531,6.875 8.68164062,6.91894531 8.68164062,6.97265625 L8.68164062,9.67041016 C9.19067383,9.83642578 9.56054688,10.3149414 9.56054688,10.8789062 C9.56054688,11.4428711 9.19067383,11.9226074 8.68164062,12.0874023 Z M12.0947266,10.3308105 C12.097168,10.3308105 12.0983887,10.3295898 12.0996094,10.3295898 L12.0996094,13.0273438 C12.0996094,13.0810547 12.0556641,13.125 12.0019531,13.125 L11.4160156,13.125 C11.3623047,13.125 11.3183594,13.0810547 11.3183594,13.0273438 L11.3183594,10.3295898 C11.3208008,10.3295898 11.3220215,10.3308105 11.3232422,10.3308105 C10.8105469,10.1672363 10.4394531,9.6875 10.4394531,9.12109375 C10.4394531,8.5546875 10.8105469,8.07495117 11.3232422,7.91137695 C11.3208008,7.91137695 11.3195801,7.91259766 11.3183594,7.91259766 L11.3183594,6.97265625 C11.3183594,6.91894531 11.3623047,6.875 11.4160156,6.875 L12.0019531,6.875 C12.0556641,6.875 12.0996094,6.91894531 12.0996094,6.97265625 L12.0996094,7.91259766 C12.097168,7.91259766 12.0959473,7.91137695 12.0947266,7.91137695 C12.6074219,8.07495117 12.9785156,8.5546875 12.9785156,9.12109375 C12.9785156,9.6875 12.6074219,10.1672363 12.0947266,10.3308105 Z M11.2695312,9.12109375 C11.2695312,9.36379701 11.4662811,9.56054688 11.7089844,9.56054688 C11.9516876,9.56054688 12.1484375,9.36379701 12.1484375,9.12109375 C12.1484375,8.87839049 11.9516876,8.68164062 11.7089844,8.68164062 C11.4662811,8.68164062 11.2695312,8.87839049 11.2695312,9.12109375 Z M8.67431641,10.6652832 L8.65600586,10.6359863 C8.65600586,10.6347656 8.65478516,10.6347656 8.65478516,10.6335449 L8.64379883,10.6188965 C8.64257812,10.6176758 8.64135742,10.6164551 8.64135742,10.6152344 C8.62915039,10.5993652 8.61694336,10.5847168 8.60229492,10.5712891 L8.59985352,10.5688477 C8.5949707,10.5639648 8.59008789,10.559082 8.58520508,10.5554199 C8.57543945,10.5456543 8.56445312,10.5371094 8.5534668,10.5297852 L8.55224609,10.5297852 L8.53759766,10.5187988 C8.53637695,10.5175781 8.53393555,10.5163574 8.53271484,10.5151367 C8.51806641,10.5053711 8.50219727,10.4956055 8.48510742,10.4882812 C8.48266602,10.4870605 8.47900391,10.4858398 8.4765625,10.4833984 C8.47167969,10.480957 8.46801758,10.4797363 8.46313477,10.4772949 C8.45947266,10.4760742 8.45458984,10.4736328 8.45092773,10.4724121 C8.44482422,10.4699707 8.4387207,10.4675293 8.43261719,10.4663086 C8.42773438,10.4650879 8.42163086,10.4626465 8.41674805,10.4614258 L8.40576172,10.4577637 C8.3996582,10.456543 8.39477539,10.4553223 8.38867188,10.4541016 C8.38623047,10.4528809 8.38256836,10.4528809 8.38012695,10.4516602 C8.37158203,10.4504395 8.36303711,10.447998 8.35449219,10.4467773 C8.35205078,10.4467773 8.34960938,10.4467773 8.34716797,10.4455566 C8.33984375,10.4443359 8.33374023,10.4443359 8.32641602,10.4431152 C8.32397461,10.4431152 8.3215332,10.4431152 8.31787109,10.4418945 C8.30810547,10.4418945 8.29956055,10.4406738 8.28979492,10.4406738 C8.2800293,10.4406738 8.27148438,10.4406738 8.26171875,10.4418945 C8.25927734,10.4418945 8.25683594,10.4418945 8.25317383,10.4431152 C8.24584961,10.4431152 8.23852539,10.4443359 8.23242188,10.4455566 C8.22998047,10.4455566 8.22753906,10.4455566 8.22509766,10.4467773 C8.21655273,10.447998 8.20800781,10.4492188 8.19946289,10.4516602 C8.19702148,10.4528809 8.19335938,10.4528809 8.19091797,10.4541016 C8.18481445,10.4553223 8.17993164,10.456543 8.17382812,10.4577637 L8.1628418,10.4614258 C8.15795898,10.4626465 8.15185547,10.4650879 8.14697266,10.4663086 C8.14086914,10.46875 8.13476562,10.4711914 8.12866211,10.4724121 C8.125,10.4736328 8.12011719,10.4760742 8.11645508,10.4772949 C8.11157227,10.4797363 8.10791016,10.480957 8.10302734,10.4833984 C8.10058594,10.4846191 8.09692383,10.4858398 8.09448242,10.4882812 C8.07861328,10.4968262 8.06274414,10.5053711 8.046875,10.5151367 C8.0456543,10.5163574 8.04321289,10.5175781 8.04199219,10.5187988 L8.02734375,10.5297852 L8.02612305,10.5297852 C8.01513672,10.5383301 8.00415039,10.546875 7.99438477,10.5554199 C7.98950195,10.5603027 7.98461914,10.5639648 7.97973633,10.5688477 L7.97729492,10.5712891 C7.96386719,10.5847168 7.95043945,10.6005859 7.93823242,10.6152344 C7.93701172,10.6164551 7.93579102,10.6176758 7.93579102,10.6188965 L7.92480469,10.6335449 C7.92480469,10.6347656 7.92358398,10.6347656 7.92358398,10.6359863 L7.90527344,10.6652832 C7.90405273,10.6677246 7.90283203,10.6689453 7.90161133,10.6713867 C7.86865234,10.7336426 7.84912109,10.8044434 7.84912109,10.8789062 C7.84912109,10.9533691 7.86865234,11.0253906 7.90161133,11.0864258 C7.90283203,11.0888672 7.90405273,11.0900879 7.90527344,11.0925293 L7.92358398,11.1218262 C7.92358398,11.1230469 7.92480469,11.1230469 7.92480469,11.1242676 L7.93579102,11.138916 C7.93701172,11.1401367 7.93823242,11.1413574 7.93823242,11.1425781 C7.95043945,11.1584473 7.96264648,11.1730957 7.97729492,11.1865234 L7.97973633,11.1889648 C7.98461914,11.1938477 7.98950195,11.1987305 7.99438477,11.2023926 C8.00415039,11.2121582 8.01513672,11.2207031 8.02612305,11.2280273 L8.02734375,11.2280273 L8.04199219,11.2390137 C8.04321289,11.2402344 8.0456543,11.2414551 8.046875,11.2426758 C8.06152344,11.2524414 8.07739258,11.262207 8.09448242,11.2695312 C8.09692383,11.270752 8.10058594,11.2719727 8.10302734,11.2744141 C8.10791016,11.2768555 8.11157227,11.2780762 8.11645508,11.2805176 C8.12011719,11.2817383 8.125,11.2841797 8.12866211,11.2854004 C8.13476562,11.2878418 8.14086914,11.2902832 8.14697266,11.2915039 C8.15185547,11.2927246 8.15795898,11.295166 8.1628418,11.2963867 L8.17382812,11.3000488 C8.17993164,11.3012695 8.18481445,11.3024902 8.19091797,11.3037109 C8.19335938,11.3049316 8.19702148,11.3049316 8.19946289,11.3061523 C8.20800781,11.307373 8.21655273,11.3098145 8.22509766,11.3110352 C8.22753906,11.3110352 8.22998047,11.3110352 8.23242188,11.3122559 C8.23974609,11.3134766 8.24584961,11.3134766 8.25317383,11.3146973 C8.25561523,11.3146973 8.25805664,11.3146973 8.26171875,11.315918 C8.27148438,11.315918 8.2800293,11.3171387 8.28979492,11.3171387 C8.29956055,11.3171387 8.30810547,11.3171387 8.31787109,11.315918 C8.3203125,11.315918 8.32275391,11.315918 8.32641602,11.3146973 C8.33374023,11.3146973 8.34106445,11.3134766 8.34716797,11.3122559 C8.34960938,11.3122559 8.35205078,11.3122559 8.35449219,11.3110352 C8.36303711,11.3098145 8.37158203,11.3085938 8.38012695,11.3061523 C8.38256836,11.3049316 8.38623047,11.3049316 8.38867188,11.3037109 C8.39477539,11.3024902 8.3996582,11.3012695 8.40576172,11.3000488 L8.41674805,11.2963867 C8.42163086,11.295166 8.42773438,11.2927246 8.43261719,11.2915039 C8.4387207,11.2890625 8.44482422,11.2866211 8.45092773,11.2854004 C8.45458984,11.2841797 8.45947266,11.2817383 8.46313477,11.2805176 C8.46801758,11.2780762 8.47167969,11.2768555 8.4765625,11.2744141 C8.47900391,11.2731934 8.48266602,11.2719727 8.48510742,11.2695312 C8.50097656,11.2609863 8.5168457,11.2524414 8.53271484,11.2426758 C8.53393555,11.2414551 8.53637695,11.2402344 8.53759766,11.2390137 L8.55224609,11.2280273 L8.5534668,11.2280273 C8.56445312,11.2194824 8.57543945,11.2109375 8.58520508,11.2023926 C8.59008789,11.1975098 8.5949707,11.1938477 8.59985352,11.1889648 L8.60229492,11.1865234 C8.61572266,11.1730957 8.62915039,11.1572266 8.64135742,11.1425781 C8.64257812,11.1413574 8.64379883,11.1401367 8.64379883,11.138916 L8.65478516,11.1242676 C8.65478516,11.1230469 8.65600586,11.1230469 8.65600586,11.1218262 L8.67431641,11.0925293 C8.67553711,11.0900879 8.67675781,11.0888672 8.67797852,11.0864258 C8.7109375,11.0241699 8.73046875,10.9533691 8.73046875,10.8789062 C8.73046875,10.8044434 8.7109375,10.7324219 8.67797852,10.6713867 C8.67675781,10.6689453 8.67553711,10.6665039 8.67431641,10.6652832 Z" id="形状" fill="#FFFFFF"></path>
                </g>
            </g>
        </g>
    </g>
</svg>