<?xml version="1.0" encoding="UTF-8"?>
<svg width="142px" height="162px" viewBox="0 0 142 162" version="1.1" xmlns="http://www.w3.org/2000/svg" xmlns:xlink="http://www.w3.org/1999/xlink">
    <title>Fill 15备份 5</title>
    <g id="页面-1" stroke="none" stroke-width="1" fill="none" fill-rule="evenodd" stroke-dasharray="3.9">
        <g id="2个模型" transform="translate(-783.000000, -318.000000)" fill-rule="nonzero" stroke="#C4C8D1" stroke-width="1.3">
            <g id="编组-5" transform="translate(703.999928, 319.153925)">
                <path d="M216.353204,37.3012214 C218.650199,39.5141073 220,42.6185444 220,45.8689081 L220,114.09656 C220,118.322433 217.771078,122.212474 214.165127,124.325411 L155.816396,158.416248 C152.558592,160.323288 148.604493,160.509194 145.214432,158.96797 C144.866284,158.81005 144.523972,158.632139 144.187494,158.436238 L85.8290382,124.329409 C82.2230866,122.22047 80,118.322433 80,114.106555 L80,45.910887 C80,41.6950094 82.2230866,37.7969718 85.8290382,35.6880335 L144.187494,1.58120397 C145.992415,0.527734321 148.005446,5.68434189e-14 150.018477,5.68434189e-14 C152.031508,5.68434189e-14 154.04454,0.527734321 155.847515,1.58120397 L214.205971,35.6880335 C214.989789,36.145803 215.707478,36.6895293 216.353204,37.3012214" id="Fill-15备份-5"></path>
            </g>
        </g>
    </g>
</svg>