<?xml version="1.0" standalone="no"?><!DOCTYPE svg PUBLIC "-//W3C//DTD SVG 1.1//EN" "http://www.w3.org/Graphics/SVG/1.1/DTD/svg11.dtd"><svg t="1686038166138" class="icon" viewBox="0 0 1024 1024" version="1.1" xmlns="http://www.w3.org/2000/svg" p-id="1281" xmlns:xlink="http://www.w3.org/1999/xlink" width="200" height="200"><path d="M226.7 124.1q25.2 0 42.75 17.1t17.55 42.3l0 45.9q0 25.2-17.55 42.75t-42.75 17.55l-47.7 0q-24.3 0-41.85-17.55t-17.55-42.75l0-45.9q0-25.2 17.55-42.3t41.85-17.1l47.7 0zM844.1 124.1q24.3 0 41.85 17.1t17.55 42.3l0 45.9q0 25.2-17.55 42.75t-41.85 17.55l-384.3 0q-25.2 0-42.75-17.55t-17.55-42.75l0-45.9q0-25.2 17.55-42.3t42.75-17.1l384.3 0zM226.7 404q25.2 0 42.75 17.55t17.55 42.75l0 45.9q0 24.3-17.55 41.85t-42.75 17.55l-47.7 0q-24.3 0-41.85-17.55t-17.55-41.85l0-45.9q0-25.2 17.55-42.75t41.85-17.55l47.7 0zM844.1 404q24.3 0 41.85 17.55t17.55 42.75l0 45.9q0 24.3-17.55 41.85t-41.85 17.55l-384.3 0q-25.2 0-42.75-17.55t-17.55-41.85l0-45.9q0-25.2 17.55-42.75t42.75-17.55l384.3 0zM226.7 684.8q25.2 0 42.75 17.55t17.55 41.85l0 45.9q0 25.2-17.55 42.75t-42.75 17.55l-47.7 0q-24.3 0-41.85-17.55t-17.55-42.75l0-45.9q0-24.3 17.55-41.85t41.85-17.55l47.7 0zM844.1 684.8q24.3 0 41.85 17.55t17.55 41.85l0 45.9q0 25.2-17.55 42.75t-41.85 17.55l-384.3 0q-25.2 0-42.75-17.55t-17.55-42.75l0-45.9q0-24.3 17.55-41.85t42.75-17.55l384.3 0z" p-id="1282"></path></svg>