<?xml version="1.0" standalone="no"?><!DOCTYPE svg PUBLIC "-//W3C//DTD SVG 1.1//EN" "http://www.w3.org/Graphics/SVG/1.1/DTD/svg11.dtd"><svg t="1648197114713" class="icon" viewBox="0 0 1024 1024" version="1.1" xmlns="http://www.w3.org/2000/svg" p-id="1877" xmlns:xlink="http://www.w3.org/1999/xlink" width="200" height="200"><defs><style type="text/css">@font-face { font-family: feedback-iconfont; src: url("//at.alicdn.com/t/font_1031158_u69w8yhxdu.woff2?t=1630033759944") format("woff2"), url("//at.alicdn.com/t/font_1031158_u69w8yhxdu.woff?t=1630033759944") format("woff"), url("//at.alicdn.com/t/font_1031158_u69w8yhxdu.ttf?t=1630033759944") format("truetype"); }
</style></defs><path d="M766.95254 567.536595c-11.798862 145.017572-133.214195 259.031297-281.272546 259.031297-155.869672 0-282.227136-126.357464-282.227137-282.227136 0-146.895143 112.22797-267.568719 255.617833-280.978433V182.086723C270.893377 195.712281 122.457524 352.688266 122.457524 544.340756c0 200.602334 162.620437 363.22247 363.22247 363.222469 192.809678 0 350.522903-150.234251 362.485229-340.026931h-81.212683z" fill="#515151" p-id="1878"></path><path d="M447.657457 182.086723h76.045073v362.254033h-76.045073z" fill="#515151" p-id="1879"></path><path d="M447.657457 506.299555h399.908099v76.045073H447.657457zM562.796158 135.143845h62.335828v296.947868h-62.335828z" fill="#515151" p-id="1880"></path><path d="M562.796158 400.908446h327.813239v62.335828H562.796158z" fill="#515151" p-id="1881"></path><path d="M847.973462 414.70981c0 16.840337-1.801709 33.259522-5.219087 49.077234h67.580502c2.648528-15.966425 4.032397-32.359721 4.032397-49.077234 0-164.438402-133.303302-297.741704-297.741704-297.741704-19.212813 0-38.000862 1.819771-56.200985 5.296754l2.371874 67.392956c17.272325-4.116386 35.296341-6.295596 53.829412-6.295597 127.769631-0.000301 231.347591 103.577659 231.347591 231.347591z" fill="#515151" p-id="1882"></path></svg>