<?xml version="1.0" standalone="no"?><!DOCTYPE svg PUBLIC "-//W3C//DTD SVG 1.1//EN" "http://www.w3.org/Graphics/SVG/1.1/DTD/svg11.dtd"><svg t="1648197091652" class="icon" viewBox="0 0 1024 1024" version="1.1" xmlns="http://www.w3.org/2000/svg" p-id="1604" xmlns:xlink="http://www.w3.org/1999/xlink" width="200" height="200"><defs><style type="text/css">@font-face { font-family: feedback-iconfont; src: url("//at.alicdn.com/t/font_1031158_u69w8yhxdu.woff2?t=1630033759944") format("woff2"), url("//at.alicdn.com/t/font_1031158_u69w8yhxdu.woff?t=1630033759944") format("woff"), url("//at.alicdn.com/t/font_1031158_u69w8yhxdu.ttf?t=1630033759944") format("truetype"); }
</style></defs><path d="M832.8 892.7h-638c-28.2 0-51.2-23-51.2-51.2V298c0-28.2 23-51.2 51.2-51.2H365c10.9 0 19.7 8.8 19.7 19.7s-8.8 19.7-19.7 19.7H194.8c-6.4 0-11.8 5.4-11.8 11.8v543.5c0 6.4 5.4 11.8 11.8 11.8h638c6.4 0 11.8-5.4 11.8-11.8V298c0-6.4-5.4-11.8-11.8-11.8H662.6c-10.9 0-19.7-8.8-19.7-19.7s8.8-19.7 19.7-19.7h170.2c28.2 0 51.2 23 51.2 51.2v543.5c0 28.2-23 51.2-51.2 51.2z" fill="#2c2c2c" p-id="1605"></path><path d="M631.1 349.2H396.5c-28.2 0-51.2-23-51.2-51.2v-63c0-28.2 23-51.2 51.2-51.2h39.4c10.9 0 19.7 8.8 19.7 19.7 0 10.9-8.8 19.7-19.7 19.7h-39.4c-6.4 0-11.8 5.4-11.8 11.8v63c0 6.4 5.4 11.8 11.8 11.8h234.6c6.4 0 11.8-5.4 11.8-11.8v-63c0-6.4-5.4-11.8-11.8-11.8h-39.4c-10.9 0-19.7-8.8-19.7-19.7 0-10.9 8.8-19.7 19.7-19.7h39.4c28.2 0 51.2 23 51.2 51.2v63c0 28.2-23 51.2-51.2 51.2z" fill="#2c2c2c" p-id="1606"></path><path d="M591.7 215.3c-10.9 0-19.7-8.8-19.7-19.7 0-6.4-5.4-11.8-11.8-11.8h-92.9c-6.4 0-11.8 5.4-11.8 11.8 0 10.9-8.8 19.7-19.7 19.7s-19.7-8.8-19.7-19.7c0-28.2 23-51.2 51.2-51.2h92.9c28.2 0 51.2 23 51.2 51.2 0 10.9-8.8 19.7-19.7 19.7z" fill="#2c2c2c" p-id="1607"></path><path d="M466 720.7c-5 0-10.1-1.9-13.9-5.8L337.4 600.3c-7.7-7.7-7.7-20.2 0-27.8 7.7-7.7 20.2-7.7 27.8 0L466 673.2l223.7-223.7c7.7-7.7 20.2-7.7 27.8 0 7.7 7.7 7.7 20.2 0 27.8L479.9 714.9c-3.8 3.9-8.9 5.8-13.9 5.8z" fill="#2c2c2c" p-id="1608"></path></svg>